<?xml version="1.0" standalone="no"?>
<!DOCTYPE svg PUBLIC "-//W3C//DTD SVG 1.1//EN" "http://www.w3.org/Graphics/SVG/1.1/DTD/svg11.dtd">
<svg xmlns="http://www.w3.org/2000/svg">
<metadata>Copyright (C) 2017 by original authors @ fontello.com</metadata>
<defs>
<font id="ic-webfont" horiz-adv-x="1000" >
<font-face font-family="ic-webfont" font-weight="400" font-stretch="normal" units-per-em="1000" ascent="850" descent="-150" />
<missing-glyph horiz-adv-x="1000" />
<glyph glyph-name="eicon-1" unicode="&#xe800;" d="M930 406h-374v374h-112v-374h-374v-112h374v-374h112v374h374v112z" horiz-adv-x="1000" />

<glyph glyph-name="eicon-2" unicode="&#xe801;" d="M70 406h860v-112h-860v112z" horiz-adv-x="1000" />

<glyph glyph-name="eicon-3" unicode="&#xe802;" d="M500 780l390-225-390-225-390 225 390 225z m0-565l-306 176-84-48 390-225 390 225-84 48-306-176z m0-198l-306 177-84-49 390-225 390 225-84 49-306-177z" horiz-adv-x="1000" />

<glyph glyph-name="eicon-4" unicode="&#xe803;" d="M644 350c0-79-65-144-144-144s-144 65-144 144 65 144 144 144 144-65 144-144z m286-29h-87c-14-167-147-300-313-314v-87h-59v87c-167 14-300 147-314 314h-87v59h87c14 166 147 299 314 313v87h59v-87c166-14 299-147 313-313h87v-59z m-144 29c0 158-128 286-286 286s-286-128-286-286 128-286 286-286 286 128 286 286z" horiz-adv-x="1000" />

<glyph glyph-name="eicon-5" unicode="&#xe804;" d="M70 391h548v-82h-548v82z m0-255h860v-82h-860v82z m0 510h860v-82h-860v82z" horiz-adv-x="1000" />

<glyph glyph-name="eicon-6" unicode="&#xe805;" d="M804 287v-304h-218v266h-172v-266h-218v304h-126l430 430 430-430c0 0-126 0-126 0z" horiz-adv-x="1000" />

<glyph glyph-name="eicon-7" unicode="&#xe806;" d="M663 305c0-114-92-206-206-206s-206 92-206 206 93 206 206 206 206-92 206-206z m267 203v-398c0-64-53-116-117-116h-626c-64 0-117 52-117 116v398c0 64 53 116 117 116h75v24c0 32 26 58 58 58h229c32 0 58-26 58-58v-24h206c64 0 117-52 117-116z m-222-203c0 139-112 251-251 251-138 0-251-112-251-251s113-251 251-251c139 0 251 112 251 251z m139 252c0 15-22 27-50 27-28 0-51-12-51-27 0-15 23-26 51-26 28 0 50 11 50 26z" horiz-adv-x="1000" />

<glyph glyph-name="eicon-8" unicode="&#xe807;" d="M938 708v-61h-614v61h614z m-614-400h614v62h-614v-62z m0-339h614v62h-614v-62z m-164 113c-45 0-82-37-82-82s37-82 82-82 82 37 82 82c0 45-36 82-82 82z m-69 175h164v164h-164v-164z m158 332l-41 89-41 88-41-88-41-89h82 82v0z" horiz-adv-x="1000" />

<glyph glyph-name="eicon-9" unicode="&#xe808;" d="M447 403h-377v377h377v-377h0z m483 377h-377v-377h377v377z m-483-483h-377v-377h377v377h0z m483 0h-377v-377h377v377z" horiz-adv-x="1000" />

<glyph glyph-name="eicon-10" unicode="&#xe809;" d="M672 600c0-95-77-209-172-209s-172 114-172 209 77 180 172 180 172-85 172-180z m-172-680c133 0 253 39 340 100-4 183-155 281-340 281s-336-98-340-281c87-61 207-100 340-100z" horiz-adv-x="1000" />

<glyph glyph-name="eicon-11" unicode="&#xe80a;" d="M930 285v130h-103c-8 44-26 85-50 121l73 72-92 92-72-73c-36 24-77 41-121 50v103h-130v-103c-44-8-84-26-120-50l-73 73-92-92 73-72c-24-36-41-77-50-121h-103v-130h103c9-44 26-85 50-120l-73-73 92-92 73 73c35-24 76-41 120-50v-103h130v103c44 9 85 26 121 50l72-73 92 92-73 73c24 35 41 76 50 120h103v0z m-430-157c-122 0-222 100-222 222s100 222 222 222 222-99 222-222-99-222-222-222z" horiz-adv-x="1000" />

<glyph glyph-name="eicon-12" unicode="&#xe80b;" d="M500 780c-237 0-430-193-430-430s193-430 430-430 430 193 430 430-193 430-430 430z m33-676h-74v68h74v-68z m117 302c-11-18-32-39-63-65-27-22-44-39-50-52-7-13-11-35-12-66h-61l-1 18c0 32 7 59 21 80 10 15 31 35 63 61 22 18 36 32 43 43 6 11 10 22 10 35 0 24-11 45-31 62-21 17-44 25-71 25-27 0-50-7-69-23-19-16-31-40-37-74l-66 7c7 46 25 81 55 104 30 24 69 35 117 35 48 0 88-12 120-37 32-25 48-56 48-95 0-21-5-40-16-58z" horiz-adv-x="1000" />

<glyph glyph-name="eicon-13" unicode="&#xe80c;" d="M930-22h-59v739h-739v59h798v-798z m-91 715v-769h-769v769h769z m-174-578c0 8-15 19-21 24-17 16-34 32-51 48-7 7-16 20-26 23-21 5-67-49-85-45-10 2-20 14-27 21-53 50-86 104-105 175-3 9-9 23-6 32 4 19 74 34 79 55 3 11-5 24-8 34-7 22-13 45-19 67-1 8-5 26-11 31-3 1-5 2-7 2-13 3-38 4-51 2-18-4-34-20-46-33-16-18-28-37-33-60-8-32-2-64 1-95 2-23 7-46 14-67 21-67 74-155 124-205 16-17 34-31 53-44 26-17 52-38 84-45 23-6 45-5 68 1 17 5 39 11 50 26 8 10 20 33 23 45 0 3 1 5 0 8z" horiz-adv-x="1000" />

<glyph glyph-name="eicon-14" unicode="&#xe80d;" d="M799 655h-598c-72 0-131-58-131-130v-350c0-72 59-130 131-130h598c3 0 5 0 8 0l10 1c2 0 4 0 8 1 5 1 10 2 16 4 2 1 4 2 7 3 50 20 82 68 82 121v350c0 72-59 130-131 130z m43-552l-11-5c-2-1-4-2-8-3-2-1-4-1-8-2-2 0-4-1-8-1-2 0-5-1-8-1h-598c-46 0-84 38-84 84v31l151 203 274-272c9-9 24-9 33-1l147 138 137-157c-4-5-9-9-15-12l-2-2z m-135 221l-148-138-278 276c-4 4-9 6-18 6-7 0-13-4-17-9l-129-175v241c0 46 38 84 84 84h598c46 0 84-38 84-84v-350c0-4 0-8-1-12l-141 160c-4 5-10 7-17 8h-1c-6 0-11-3-16-7z m16-4l0 0v1-1z m-458 138l0 0h0v0z m246 93c-46 0-82-37-82-82s36-82 82-82c45 0 82 37 82 82s-37 82-82 82z m35-82c0-20-16-35-35-35s-36 15-36 35 16 35 36 35c19 0 35-16 35-35z" horiz-adv-x="1000" />

<glyph glyph-name="eicon-15" unicode="&#xe80e;" d="M810 342c-22 70-86 116-160 116-53 0-103-24-134-66-22 63-82 107-149 107-87 0-158-71-158-157 0-61 35-115 89-142-6-13-9-27-9-41 0-54 40-99 92-104 2-1 4-1 7-1h399c0 0 2 0 2 0 78 2 141 67 141 145 0 70-51 131-120 143z m-24-245l-393 0c-1 0-3 0-3 0-32 3-57 30-57 62 0 14 4 28 13 39 3 3 6 6 10 9l1 1 12 7c1 1 2 1 4 2l8 2c2 1 3 1 4 1l3 0c4 1 8 1 15 0 0 0 2 0 3 0 5 0 10 2 13 5 5 4 8 9 8 15 0 3 1 6 1 9l1 4c0 1 0 3 1 5l1 2c0 2 1 4 1 6l1 2c1 2 2 4 2 6l1 2c1 2 2 4 3 5l1 2c1 2 2 4 3 5l2 2c1 2 2 4 4 5l1 2c1 2 3 3 4 4l2 2c1 1 2 3 4 4l2 2 3 2c0 0 1 1 1 1l3 2c11 8 23 13 35 15 1 0 2 0 2 0 4 1 8 1 11 1 8 1 15 6 19 13 20 44 65 72 113 72 59 0 110-40 123-98 2-9 10-16 19-16 54-4 95-49 95-102 0-55-44-101-100-102z m-390 169l0 0 0 0 0 0z m3 10l0 0 0 0 0 0z m67 86c-2-1-5-2-7-4l-3-1c-2-1-4-2-5-3-2-1-3-2-4-3l-5-3c-2-1-3-2-5-4l-3-2c-2-2-5-4-7-7-8-7-15-16-22-26-2-3-3-5-4-8l-2-2c-1-3-2-5-3-8l-1-2c-1-3-2-5-3-8 0 0-1-3-1-3-1-2-2-5-2-7l-1-3c-1-1-1-3-1-4-2 0-3 0-5-1-17-1-33-7-47-17-1-1-2-2-4-3l-2-2c0 0-2-1-2-1-1-1-2-2-3-3l3-2c-44 16-74 59-74 107 0 62 51 114 114 114 53 0 99-38 111-89-4-2-8-3-12-5z m-121 190v73c0 12 10 21 22 21 12 0 21-9 21-21v-73c0-12-9-22-21-22-12 0-22 10-22 22z m-180-224h-73c-12 0-22 10-22 22s10 22 22 22h73c12 0 22-10 22-22s-10-22-22-22z m329 149c-9 9-9 22 0 31l51 51c9 9 23 9 31 1 8-9 8-23 0-31l-52-52c-4-4-9-6-15-6-6 0-11 2-15 6z m-255-254c9-9 9-22 0-31l-51-51c-4-5-10-7-15-7-6 0-12 3-16 7-8 8-8 22 0 30l52 52c8 8 22 8 30 0z m-82 306c-8 8-8 22 0 30 8 9 23 9 31 1l51-52c9-9 9-22 0-31-4-4-9-6-15-6-6 0-11 2-15 6l-52 52z" horiz-adv-x="1000" />

<glyph glyph-name="eicon-16" unicode="&#xe80f;" d="M686-80l58 59-371 371 371 371-58 59-430-430 430-430z" horiz-adv-x="1000" />

<glyph glyph-name="eicon-17" unicode="&#xe810;" d="M917-6c17-17 17-44 0-61-8-8-19-13-30-13-12 0-23 5-31 13l-356 356-356-356c-8-9-19-13-30-13s-23 4-31 13c-17 17-17 44 0 61l356 356-356 356c-17 17-17 44 0 61 17 17 44 17 61 0l356-356 356 356c17 17 44 17 61 0 17-17 17-44 0-61l-356-356 356-356z" horiz-adv-x="1000" />

<glyph glyph-name="eicon-18" unicode="&#xe811;" d="M610 662h-540v67h540v-67z m0-304h-540v-67h540v67z m-540-255h270v67h-270v-67z m808 439h-808v-67h808c0 0 0 67 0 67z m4-222l-254-254-95 95-48-48 143-142 302 302-48 47z" horiz-adv-x="1000" />

<glyph glyph-name="eicon-19" unicode="&#xe812;" d="M843 633h-686c-48 0-87-39-87-87v-22-370c0-48 39-86 87-86h686c48 0 87 38 87 86v370 22c0 48-39 87-87 87z m-725-87c0 22 17 40 39 40h686c22 0 40-18 40-40l-383-330-382 330c0 0 0 0 0 0z m765-392c0-22-18-39-40-39h-686c-22 0-40 17-40 39v330l383-330 383 330c0 0 0-330 0-330z" horiz-adv-x="1000" />

<glyph glyph-name="eicon-20" unicode="&#xe813;" d="M548 264c0-18-10-34-25-42v-45c0-11-9-20-20-20h-6c-11 0-20 9-20 20v45c-15 8-25 24-25 42 0 27 21 49 48 49 27 0 48-22 48-49z m264-32c0-172-140-312-312-312s-312 140-312 312c0 78 29 149 76 203v109c0 130 106 236 236 236s236-106 236-236v-109c47-54 76-125 76-203z m-497 250c1 1 2 2 2 2 6 4 11 8 17 11 1 1 3 2 5 3 19 12 40 22 62 30 0 0 1 0 1 0 6 2 12 3 17 5 4 1 8 2 11 3 5 1 10 2 15 3 5 1 10 1 15 2 4 1 8 1 12 1 9 1 19 2 28 2s19-1 28-2c4 0 8 0 12-1 5-1 10-1 15-2 5-1 10-2 15-3 4-1 7-2 11-3 5-2 11-3 17-5 0 0 1 0 1 0 22-8 43-18 63-30 1-1 3-2 5-3 5-3 10-7 16-11 1 0 2-1 2-2v62c0 102-83 185-185 185s-185-83-185-185c0 0 0-62 0-62z m446-250c0 69-27 131-70 178-5 6-11 11-17 17-1 0-1 1-2 1-7 6-13 12-20 17 0 0-1 0-1 0-44 31-97 48-151 48-54 0-107-17-151-48 0 0-1 0-1 0-7-5-13-11-20-17 0 0-1-1-2-1-6-6-11-11-17-17-43-47-70-109-70-178 0-144 117-261 261-261s261 117 261 261z" horiz-adv-x="1000" />

<glyph glyph-name="eicon-21" unicode="&#xe814;" d="M868 38l-497 0c0 0-3 0-3 0-41 3-72 37-72 78 0 18 6 35 17 49 3 4 7 8 12 12l2 1 15 9c1 1 2 1 5 2l10 3c2 0 4 1 5 1l3 0c6 1 11 1 19 0 1 0 3 0 4 0 6 0 12 2 17 6 6 5 10 12 10 20 0 3 1 7 1 11l1 4c1 2 1 4 1 6l1 4c1 2 2 4 2 7l2 3c1 2 1 5 2 7l2 3c1 2 2 4 3 6l2 3c1 2 2 4 4 6l1 3c2 2 3 4 5 6l2 2c2 2 3 4 5 5l2 3c2 2 3 3 5 4l3 3 3 3c0 0 3 1 3 1l3 2c14 10 29 17 44 19 1 0 2 1 3 1 5 0 9 1 14 1 10 1 19 7 23 16 26 55 83 91 144 91 74 0 138-51 154-123 3-12 13-21 25-21 67-5 120-61 120-129 0-69-56-127-127-128z m-493 215l0 0 0 0 0 0z m4 11l0 0 0 0 0 0z m85 108c-3-1-6-3-9-4l-3-2c-3-1-5-3-7-4-2-1-4-2-5-3l-6-4c-2-2-4-3-6-5l-4-3c-3-2-6-5-10-8-10-10-18-21-27-34-2-3-4-6-6-10l-1-2c-2-4-3-7-5-10l-1-3c-1-3-3-7-4-10 0 0-1-3-1-3-1-4-2-7-3-10l-1-4c0-1 0-3-1-5-2 0-4 0-6 0-21-3-41-10-59-22-1-1-3-3-5-4l-3-2c0-1-2-2-2-2-1-1-2-2-4-3l4-4c-57 21-94 75-94 135 0 80 64 144 144 144 67 0 126-47 140-112-5-2-9-4-15-6z m-147 206v82c0 14 11 25 25 25 14 0 25-11 25-25v-82c0-14-11-25-25-25-14 0-25 11-25 25z m-204-254h-83c-14 0-25 11-25 24s11 25 25 25h83c14 0 25-11 25-25s-11-24-25-24z m374 169c-10 10-10 25 0 35l58 59c10 9 26 9 35 0 10-10 10-26 0-35l-58-59c-5-5-11-7-18-7-6 0-13 2-17 7z m-290-289c10-10 10-25 1-35l-59-59c-5-4-11-7-18-7-6 0-12 3-17 7-10 10-10 26 0 35l59 59c9 9 25 9 34 0z m-93 348c-10 9-10 25 0 35 9 9 25 9 35 0l58-59c10-10 10-25 1-35-5-5-11-7-18-7-6 0-13 2-17 7l-59 59z" horiz-adv-x="1000" />

<glyph glyph-name="eicon-31" unicode="&#xe81e;" d="M642 350l-328-328 22-22 350 350-350 350-22-22 328-328z" horiz-adv-x="1000" />

<glyph glyph-name="eicon-32" unicode="&#xe81f;" d="M847 366h-331v331h-32v-331h-331v-32h331v-331h32v331h331v32z" horiz-adv-x="1000" />

<glyph glyph-name="eicon-33" unicode="&#xe820;" d="M500 713c-200 0-363-163-363-363 0-200 163-363 363-363 200 0 363 163 363 363 0 200-163 363-363 363z m0-694c-183 0-331 148-331 331s148 331 331 331 331-148 331-331-148-331-331-331z m2 335h222v-31h-253v253h31v-222z" horiz-adv-x="1000" />

<glyph glyph-name="eicon-34" unicode="&#xe821;" d="M861 587h-481c-18 0-32-14-32-31v-3h-96c-17 0-31-13-48-42l-65-111c-17 0-31-14-31-31v-156c0-18 14-32 31-32h75c7-38 41-68 82-68s75 30 82 68h243c7-38 41-68 82-68s75 30 82 68h76c17 0 31 14 31 32v343c0 17-14 31-31 31z m-630-92c15 26 21 26 21 26h96v-121h-173l56 95z m-92-127h209v-106c-1 1-2 2-3 2-2 2-3 3-5 4-2 1-5 3-8 4-2 1-4 2-5 3-4 1-7 2-10 3-2 0-4 1-5 1-5 1-11 2-16 2-5 0-11-1-16-2-2 0-3-1-5-1-3-1-7-2-10-3-2-1-3-2-5-3-3-1-6-3-8-4-2-2-4-3-6-4-2-2-4-4-7-6-1-1-3-3-4-4-2-2-4-5-6-7-1-2-2-3-3-5-2-3-4-6-5-9-1-1-2-3-2-5-2-3-3-7-4-11 0-1-1-2-1-4 0 0 0 0 0 0l-75 0 0 155z m157-223c-29 0-52 23-52 52s23 52 52 52 52-23 52-52-23-52-52-52z m407 0c-29 0-52 23-52 52s23 52 52 52 53-23 53-52-24-52-53-52z m158 68h-76c0 0 0 0 0 0 0 2-1 3-1 5-1 3-2 7-3 10-1 2-2 4-3 5-1 3-3 6-4 9-2 2-3 3-4 5-2 2-4 5-6 7-1 1-3 3-4 4-2 2-5 4-7 6-2 1-4 2-5 4-3 1-6 3-9 4-1 1-3 2-5 3-3 1-6 2-10 3-2 0-3 1-5 1-5 1-10 2-16 2-5 0-11-1-16-2-1 0-3-1-5-1-3-1-6-2-10-3-2-1-3-2-5-3-3-1-6-3-8-4-2-2-4-3-5-4-3-2-5-4-7-6-2-1-3-3-5-4-2-2-4-5-6-7-1-2-2-3-3-5-2-3-3-6-5-9-1-1-2-3-2-5-2-3-3-7-4-10 0-2 0-3-1-5 0 0 0 0 0 0h-241v155 32 153h0l0 2 481 1v-343z" horiz-adv-x="1000" />

<glyph glyph-name="eicon-35" unicode="&#xe822;" d="M710 344c24 38 38 83 38 131 0 30-6 58-16 86 24 19 36 42 36 65 0 67-100 108-268 108-168 0-268-41-268-108 0-23 12-46 36-65-10-28-16-56-16-86 0-48 14-93 38-131-101-3-182-86-182-188v-190h784v190c0 102-81 185-182 188z m-210 358c140 0 237-31 237-76 0-18-14-33-27-43h-417l-12 9 0 0c-10 9-18 21-18 34 0 45 98 76 237 76z m188-150c-39-67-110-109-188-109-78 0-149 42-187 109h375z m-398-24c45-71 124-116 210-116 86 0 165 45 210 116 4-17 7-35 7-53 0-52-19-100-50-137-4-6-9-11-14-16-3-3-6-5-9-8-3-2-5-5-8-7-3-3-6-5-10-7-2-2-5-4-8-6-3-2-7-4-10-7-3-1-6-3-9-4-4-2-7-4-11-6-3-1-7-2-10-4-4-1-7-2-11-4-4-1-8-2-12-3-3-1-6-2-9-2-5-1-10-2-15-3-3 0-5-1-8-1-7-1-15-1-23-1-8 0-15 0-23 1-3 0-5 1-8 1-5 1-10 2-15 3-3 0-6 1-9 2-4 1-8 2-12 4-4 1-7 2-10 3-4 2-8 3-11 5-3 1-7 3-10 5-3 1-7 3-10 5-3 2-7 4-10 6-3 2-5 4-8 6-3 2-7 4-10 7-3 2-6 5-8 7-3 3-6 5-8 8-6 5-10 10-15 16-31 37-49 85-49 137 0 18 2 36 6 53z m571-530h-722v158c0 86 71 157 157 157h17c2-3 4-5 6-7 3-3 6-6 9-9 3-3 7-6 10-9 3-2 6-5 8-7 4-3 8-6 12-9 3-2 6-3 9-5 4-3 8-5 12-8 3-2 6-3 9-5 5-2 9-4 13-6 4-1 7-3 11-4 4-2 8-3 12-5 5-1 9-2 14-3 3-1 7-2 11-3 5-1 11-2 16-3 3 0 6-1 9-1 9-1 17-2 26-2 9 0 18 1 26 2 3 0 6 1 9 1 5 1 11 2 16 3 4 1 8 2 12 3 4 1 8 2 13 3 4 2 8 3 12 5 4 1 7 3 11 4 4 2 8 4 13 6 3 2 6 3 9 5 4 3 8 5 13 8 2 2 5 3 8 5 4 3 8 6 12 9 3 2 5 5 8 7 3 3 7 6 10 10 3 2 6 5 9 8 2 2 4 4 6 7h17c86 0 157-71 157-157v-158z" horiz-adv-x="1000" />

<glyph glyph-name="eicon-36" unicode="&#xe823;" d="M859 591l-24 23c-13 13-30 20-49 20-18 0-36-7-49-20l-34-34c0 0 0 0-1-1 0 0 0 0 0 0l-150-150h-288c-9 0-16-7-16-16s7-15 16-15h257l-115-115h-142c-9 0-16-7-16-16 0-8 7-15 16-15h112c-1-1-1-1-1-2 0 0 0-1 0-1-1-1-1-1-1-2l-21-110h-89c-9 0-16-7-16-16 0-8 7-15 16-15h102c2 0 3 0 4 1l121 22c1 0 2 1 3 1 0 0 0 0 1 0 1 1 3 2 4 3 0 1 0 1 1 1l323 323c0 1 0 1 1 1 0 0 1 1 1 1l34 34c27 27 27 71 0 98z m-473-450l13 71 57-57-70-14z m102 26l-38 38-39 39 13 12c0 0 0 0 0 0l145 146c0 0 0 0 0 0l144 144 39-39 38-39-302-301z m349 348l-25-25-38 39-39 39 24 24c15 14 40 14 54 0l24-24c14-14 14-38 0-53z m-125-217c-9 0-16-7-16-16v-293h-544v554h152c9 0 16 7 16 16v152h376v-63c0-9 7-16 16-16s16 7 16 16v79c0 8-7 15-16 15h-408c0 0 0 0-1 0-1 0-2 0-4-1 0 0-1 0-1 0-2-1-3-2-5-3l-167-168c-2-1-3-3-3-5-1 0-1-1-1-1 0-1-1-3-1-4 0 0 0-1 0-1v-586c0-8 7-15 16-15h575c8 0 15 7 15 15v309c1 9-6 16-15 16z m-480 334l57 57v-114h-114l57 57z" horiz-adv-x="1000" />

<glyph glyph-name="eicon-37" unicode="&#xe824;" d="M515 433v-458c0-9-7-16-16-16s-15 7-15 16v458l-103-102c-3-3-7-4-11-4s-8 1-11 4c-6 6-6 16 0 22l129 129c3 3 7 5 11 5 4 0 8-2 11-5 0 0 0 0 0 0l129-129c6-6 6-16 0-22s-16-6-22 0l-102 102z m283 92c-7 120-107 216-229 216-82 0-159-46-199-117-22 11-46 16-70 16-78 0-145-58-156-134-59-32-98-96-98-164 0-102 83-185 186-185h200c8 0 15 7 15 16s-7 15-15 15h-200c-85 0-154 69-154 154 0 59 34 114 88 139 5 3 8 8 9 13 5 65 60 115 125 115 24 0 47-7 68-20 4-2 8-3 13-2 4 1 7 4 9 9 33 69 103 113 179 113 109 0 198-88 198-198 0-8 6-15 14-15 79-7 141-74 141-154 0-79-62-147-141-153-1 0-2 0-3-1h-207c-8 0-15-7-15-15s7-16 15-16h211c2 0 4 1 6 1 93 10 166 90 166 184 0 91-68 169-156 183z" horiz-adv-x="1000" />

<glyph glyph-name="eicon-38" unicode="&#xe825;" d="M896 608c-8 12-21 19-36 19h-720c-9 0-18-3-26-9-11-8-17-20-17-33v-470c0-23 19-42 43-42h720c24 0 43 19 43 42v470c0 8-2 15-7 23z m-44-12l-310-224c-1 0-1-1-2-1-19-19-52-19-72 1 0 0-1 1-2 1l-303 223h689z m8-492h-720c-7 0-12 5-12 11v468l319-234c16-15 36-24 58-24 21 0 41 8 56 23l311 224v-457c0-6-5-11-12-11z" horiz-adv-x="1000" />

<glyph glyph-name="eicon-39" unicode="&#xe826;" d="M632-85c0 0-90 231-187 286s-341 13-341 13l659 545-131-844z" horiz-adv-x="1000" />

<glyph glyph-name="eicon-40" unicode="&#xe827;" d="M282 550h31v-80h-31v80z m147-80h31v80h-31v-80z m-147-169h31v79h-31v-79z m147 0h31v79h-31v-79z m-147-169h31v79h-31v-79z m147 0h31v79h-31v-79z m336 151h-80v-32h80v32z m0-147h-80v-31h80v31z m114 263v-331c0-49-40-89-89-89h-190-463c-9 0-16 7-16 16v710c0 9 7 16 16 16h463c9 0 15-7 15-16v-290h248c9 0 16-7 16-16z m-727-389h432v389 291h-432v-680z m696 374h-233v-374h175c32 0 58 26 58 58v316z" horiz-adv-x="1000" />

<glyph glyph-name="eicon-41" unicode="&#xe828;" d="M500 716c-202 0-366-164-366-366s164-366 366-366 366 164 366 366-164 366-366 366z m0-685c-176 0-319 143-319 319 0 176 143 319 319 319 176 0 319-143 319-319 0-176-143-319-319-319z m23 328h200v-47h-223c-13 0-23 10-23 23v235h46v-211z" horiz-adv-x="1000" />

<glyph glyph-name="eicon-42" unicode="&#xe829;" d="M266 558h47v-82h-47v82z m152-82h47v82h-47v-82z m-152-177h47v83h-47v-83z m152 0h47v83h-47v-83z m-152-177h47v83h-47v-83z m152 0h47v83h-47v-83z m358 165h-83v-47h83v47z m0-153h-83v-47h83v47z m126 267v-345c0-55-45-100-100-100h-198-483c-13 0-23 10-23 23v742c0 13 10 23 23 23h483c13 0 24-10 24-23v-296h251c13 0 23-11 23-24z m-757-398h436v398 296h-436v-694z m711 375h-228v-375h174c30 0 54 24 54 53v322z" horiz-adv-x="1000" />

<glyph glyph-name="eicon-43" unicode="&#xe82a;" d="M501 800c-169 0-306-137-306-306 0-291 278-565 289-577 5-4 11-7 17-7 6 0 12 3 16 7 12 12 290 290 290 577 0 169-137 306-306 306z m0-832c-60 63-259 294-259 526 0 143 116 259 259 259s259-116 259-259c0-229-200-462-259-526z m0 671c-80 0-144-65-144-145 0-79 64-144 144-144s144 65 144 144c0 80-65 145-144 145z m0-242c-54 0-98 44-98 97s44 98 98 98 97-44 97-98-43-97-97-97z" horiz-adv-x="1000" />

<glyph glyph-name="eicon-22" unicode="&#xe868;" d="M885-66c-9 0-16 7-16 15 0 204-166 369-369 369-198 0-360-157-369-353h570c9 0 16-7 16-16s-7-15-16-15h-585c-9 0-16 7-16 15 0 221 179 400 400 400 221 0 400-179 400-400 0-8-7-15-15-15z m-240 463c43 40 68 97 68 156 0 118-95 213-213 213s-213-95-213-213c0-59 25-116 68-156 7-6 17-6 23 1 5 6 5 16-1 22-38 35-59 82-59 133 0 100 82 182 182 182 100 0 182-82 182-182 0-51-21-98-59-133-6-6-6-16 0-22 3-4 7-5 11-5 4 0 8 1 11 4z" horiz-adv-x="1000" />

<glyph glyph-name="eicon-23" unicode="&#xe869;" d="M909 251c4 0 8 2 11 5 3 3 4 7 4 11-3 226-185 411-409 419v71c0 9-7 16-16 16s-15-7-15-16v-80l-405-399c-5-5-6-12-4-17 3-6 8-10 15-10h394v-82h-380c-5 0-9-2-12-6-3-4-4-9-3-14 25-91 81-173 157-229 3-2 6-3 10-3h487c3 0 6 1 9 3 77 56 132 138 157 229 2 5 1 10-2 14s-8 6-13 6h-379v82h394z m-171-303h-477c-63 48-111 115-136 190h748c-25-75-72-142-135-190z m154 334h-377v373c202-8 367-171 377-373z m-764 0l356 351v-351h-356z" horiz-adv-x="1000" />

<glyph glyph-name="eicon-24" unicode="&#xe86a;" d="M500 775c-234 0-425-190-425-425 0-234 191-425 425-425s425 191 425 425c0 235-190 425-425 425z m16-819v107c0 9-7 16-16 16s-16-7-16-16v-107c-204 8-370 174-378 378h107c9 0 16 7 16 16 0 9-7 16-16 16h-107c8 205 174 370 378 378v-107c0-9 7-16 16-16s16 7 16 16v107c205-8 370-173 378-378h-107c-9 0-16-7-16-16 0-9 7-16 16-16h107c-8-204-173-370-378-378z m-155 557l80-239 245-87-80 239-245 87z m162-202c-21 0-38 18-38 39 0 21 17 39 38 39s39-18 39-39c0-21-17-39-39-39z" horiz-adv-x="1000" />

<glyph glyph-name="eicon-25" unicode="&#xe86b;" d="M650 201c32 0 59 17 77 48l138 297c7 20 3 33-2 41-9 13-27 19-52 19h-647v159c0 9-7 16-16 16s-15-7-15-16v-174-375-106c0-32 26-59 58-59h107c-13-14-21-33-21-54 0-46 37-83 83-83s83 37 83 83c0 21-8 40-21 54h204c-13-14-21-33-21-54 0-46 37-83 83-83s83 37 83 83c0 21-8 40-21 54h77c9 0 16 7 16 16s-7 16-16 16h-636c-15 0-27 12-27 27v91h486z m-290-256c-28 0-52 23-52 52s24 52 52 52c29 0 52-23 52-52s-23-52-52-52z m328 0c-29 0-52 23-52 52s23 52 52 52 52-23 52-52-24-52-52-52z m123 630c17 0 24-4 26-6 1-2 1-6-1-11l-137-295c-15-27-37-31-49-31h-486v343h647z" horiz-adv-x="1000" />

<glyph glyph-name="eicon-26" unicode="&#xe86c;" d="M934 627c0 0 0 0 0 0-10 14-27 22-44 22h-765c-17 0-34-8-44-22 0 0 0 0 0 0-8-10-12-22-12-34v-490c0-31 25-57 56-57h765c31 0 56 26 56 57v490c0 12-4 24-12 34z m-44-9c1 0 3 0 5-1l-331-232c-21-13-38-19-55-19h0c-18 0-36 6-57 19l-332 232c2 1 4 1 5 1h765z m25-25v-490c0-14-12-25-25-25h-765c-13 0-25 11-25 25v490c0 0 0 0 0 0l335-234c54-33 95-33 146 0l334 234c0 0 0 0 0 0z" horiz-adv-x="1000" />

<glyph glyph-name="eicon-27" unicode="&#xe86d;" d="M929 343c0-86-67-156-153-160-1-1-2-1-3-1h-137c-9 0-16 7-16 16s7 16 16 16h134c1 0 1 0 2 0 70 2 125 59 125 129 0 72-58 130-129 130-2 0-3 0-5 0l-2-1c-5 0-9 2-12 5-3 3-5 7-5 11 0 104-84 188-188 188-69 0-132-37-165-97-2-4-5-7-9-8-5-1-9 0-13 2-17 10-37 16-58 16-61 0-111-48-114-109-1-6-5-12-11-14-53-18-88-67-88-123 0-71 58-129 130-129h167c9 0 16-7 16-16s-7-16-16-16h-167c-89 0-161 72-161 161 0 66 39 124 99 149 9 73 71 128 145 128 21 0 42-4 61-13 40 62 109 100 184 100 115 0 211-90 219-203 85-4 154-75 154-161z m-307-16c4 0 8 2 11 5 7 6 7 16 0 22l-115 115c0 0 0 0 0 0-3 3-7 5-11 5-4 0-8-2-11-5l-115-115c-6-6-6-16 0-22s16-6 22 0l88 89v-408c0-8 7-15 16-15s16 7 16 15v408l88-89c3-3 7-5 11-5z" horiz-adv-x="1000" />

<glyph glyph-name="eicon-28" unicode="&#xe86e;" d="M878 580h-205l-18 57c-8 24-38 42-70 42h-161c-32 0-62-18-70-42l-18-57h-205c-33 0-61-27-61-61v-434c0-34 28-61 61-61h747c33 0 61 27 61 61v434c0 34-28 61-61 61z m29-495c0-16-13-30-29-30h-747c-16 0-29 14-29 30v434c0 16 13 30 29 30h216c7 0 13 4 15 11l22 67c3 10 20 21 40 21h161c20 0 37-11 40-21l22-67c2-7 8-11 15-11h216c16 0 29-14 29-30v-434z m-402 422c-97 0-175-79-175-175s78-175 175-175c96 0 174 79 174 175s-78 175-174 175z m0-318c-80 0-144 64-144 143 0 79 64 143 144 143 79 0 143-64 143-143 0-79-64-143-143-143z m-368 449c0 9 7 16 16 16h97c9 0 16-7 16-16s-7-16-16-16h-97c-9 0-16 7-16 16z" horiz-adv-x="1000" />

<glyph glyph-name="eicon-29" unicode="&#xe86f;" d="M845 651h-422l-61 46c-3 2-6 3-10 3h-207c-38 0-69-31-69-69v-577c0-38 31-69 69-69h700c38 0 69 31 69 69v528c0 38-31 69-69 69z m-700 18h202l61-46c3-2 6-3 9-3h428c21 0 38-17 38-38v-62h-776v111c0 21 17 38 38 38z m700-653h-700c-21 0-38 17-38 38v435h776v-435c0-21-17-38-38-38z" horiz-adv-x="1000" />

<glyph glyph-name="eicon-30" unicode="&#xe870;" d="M353 350l328-328-22-22-351 350 351 350 22-22-328-328z" horiz-adv-x="1000" />
</font>
</defs>
</svg>
